# xmcd
#
# Track frame offsets: 
#        150
#        21516
#        41053
#        68090
#        90480
#        113970
#        134442
#        175694
#        200942
#        238300
#        262606
#
# Disc length: 3851 seconds
#
# Revision: 3
# Processed by: cddbd v1.5.2PL0 Copyright (c) Steve Scherf et al.
# Submitted via: ExactAudioCopy v0.99pb4
#
DISCID=9c0f090b
DTITLE=Marc Reece - Breakin' Out
DYEAR=2002
DGENRE=Blues
TTITLE0=Bad Dreams
TTITLE1=Spend My Life
TTITLE2=Teach Me Tonight
TTITLE3=Gypsy Hood
TTITLE4=Nightcats
TTITLE5=Met You at the Redhouse
TTITLE6=What Do You Know
TTITLE7=Breakin' Out
TTITLE8=Drivin' Down
TTITLE9=Rules
TTITLE10=Wintertime
EXTD=
EXTT0=
EXTT1=
EXTT2=
EXTT3=
EXTT4=
EXTT5=
EXTT6=
EXTT7=
EXTT8=
EXTT9=
EXTT10=
PLAYORDER=
